<?xml version="1.0" encoding="UTF-8"?>
<svg id="Calque_1" data-name="Calque 1" xmlns="http://www.w3.org/2000/svg" viewBox="0 0 983.04 983.04">
  <path d="M719.93,388.42c.2.21-.06,1.03.14,1.24.1.11,2,.37,2.84.79,1.95.99,3.47,2.88,4.62,3.54,1.04.59,2.58.33,3.51.81.74.39.84,1.48,1.47,1.89,2.76,1.8,8.38,1.09,7.18,6.98l2.89-.29,10.93,7.1c-.04,1.55.31,3.01.52,4.52.08.58-.36,1.28-.27,1.8.54,3.12,1.79,4.08,4.7,4.81l.65,3.67c3.8.84,2.91,2.88,4.14,5.83.18.42.84.45,1.06.98,1.5,3.66,1.95,8.83,3.21,12.67.21,1.06-.42,1.56-1.43,1.63v.46c3.41.64.31,4.3.2,5.53-.1,1.16,1.37,2.37,1.62,3.45.55,2.4-.72,5.96-.88,8.53-.15,2.29,1.41,4.74-.94,5.81,1.72,5.73-1.32,11.37-1.02,17.18l-2.75,2.07c.63,2.26.24,4.23-.21,6.49-.59,2.95-.18,1.24.06,3.49.37,3.39-1.21,3.36.77,7.5.27.56.16,1.55.36,1.78.33.39,2.18.12,2.83.9,1,1.2,1.4,3.91,1.12,5.45,1.57.2,3.18,2.23,4.15,2.64.9.38,1.57-.24,2.39-.05,2.73.65,6.88,7.03,9.33,8.93.84.65,2.63.96,2.91,1.41.39.62.04,1.71.47,2.41,1.36,2.25,4.17,5.56,5.41,8.03s1.41,6.66,2.38,8.67c.4.83,1.32.82,1.66,1.76.45,1.21-.15,2.15,0,3.25.33,2.53,3.08,3.91,3.18,5.98.03.66-.78,1.18-.85,1.86-.17,1.87.21,3.91-.05,5.71-.18,1.21-1.3,2.71-1.29,3.97,0,.95,1.22,1.58,1.31,2.8.36,5.12-1.26,8.84-1.85,13.48-.23,1.85.17,3.75-.17,5.59-.62,3.36-5.83,15.33-8.05,17.87-1.1,1.26-4.06,2.51-4.55,3.61-.38.84-.11,1.8-.37,2.51-1.94,5.37-11.18,7.88-15.48,10.92-1.47,1.04-1.58,2.52-2.28,3.24-1.3,1.32-5.8,3.6-7.79,5.41-.77.7-1.65,2.41-2.16,2.67-.73.36-1.67-.58-2.87-.05-.99.44-4.05,3.73-5.16,4.03-1.18.32-2.26-1.34-3.04-.69-.7,2.71-3.12,3.46-5,5.09-1.11.96-2.04,2.12-3.16,3.08-1.7,1.44-2.7.56-2.58,4.14l-3.15,1.16c3.18,3.25-1.79,4.31-2.63,5.54-1.37,2.02-1.98,5.94-4.62,7.86-.74.54-1.77.4-2.59,1.25-1,1.04-2.06,4.93-3.39,6.21-.73.71-1.95.58-2.62,1.22-.92.86-4.67,8.06-5.87,8.76-.61.36-1.97,0-2.92.56-.66.39-2.9,4.45-4.92,4.8l-1.88-.93c-.98,3.02-2.75,4.18-5.5,5.54s-3.54,1.24-6.4,1.76c-1.54.28-2.51,1.53-4.66.38l-.04,2.84c-2.2.6-4.75-.38-6.92.05-1.07.21-1.35,1.22-2.41,1.43-3.02.58-9.19.55-12.15-.32-3.82-1.12-3.99-3.1-8.95-2.53-2.25.26-.62.51-3.5.1-4.6-.66-8.14-1.05-11-5.32l-6.41-.31-.95-3.61c-3.33.95-6-.05-4.8-3.84-6.67,1.73-4.97-3.53-6.73-6.83-.43-.81-2.39-1.38-2.9-2.15-.68-1.02-2.18-4.45-2.81-5.22-.52-.65-1.67-.55-2.19-1.17-.49-.58-.43-2.01-.83-2.3-.47-.34-2.04-.04-2.68-.68-.52-.53-.37-1.96-.67-2.21-.28-.23-1.27-.02-1.8-.34-.7-.41-1.27-1.31-1.98-1.88-.57-.47-1.84-.7-2.14-1.21-.51-.87.04-2.12-.33-2.8-.28-.51-2.75-1.14-3.4-1.51-.48-.28-.48-1.18-1.12-1.38-1.15-.37-2.81.13-4.16-.17-1.43-.32-2.74-1.92-4.92-1.85-.42.01-7.58,2.3-8.03,2.53-2.2,1.12-1.81,3.04-5.54,1.9-1.7,3.64-5.54,5.4-6.03,9.54l-3.67.68-1.43,4.1-1.94-.29c-.78,1.01-.63,2.45-1.41,3.46-.47.6-1.24.29-1.69.65-3.27,2.67-7.16,6.17-9.84,9.37-.45.54-.49,1.6-.96,1.96-.4.3-1.26-.39-1.68.17-.75,1.01-.8,2.69-2.21,4.07-2.28,2.23-6.56,4.17-9.2,6.03-.6.42-.72,1.43-1.3,1.7-1.02.48-2.26,0-3.37.48-2.02.89-2.41,4.57-6.38,3.1-.54-.2-.11-1.35-1.3-.94-.14.92-.56,1.78-1.06,2.54-3.1,4.7-2.56,1.46-3.96,1.77-.41.09-.74,1.28-1.25,1.65-2.51,1.83-6.49.34-8.62.93-1.66.46-3.7,3.52-4.42,3.82-2,.83-10.5,2.73-12.61,2.72-1.32,0-2.57-.83-3.83-.87-1-.03-2.09.65-3.36.41s-1.25-1.69-1.96-1.86c-2.78-.69-3.98,3.21-4.27,3.24-1.41-1.43-3.51-.33-4.59-.63-.7-.19-1.28-1.21-2.14-1.23-.79-.02-1.56.89-2.44.95-1.14.08-1.86-.89-2.76-.85-1.19.06-2.4.92-4.41.88-.94-.02-8.94-.92-9.48-1.09-.68-.23-1.01-1.05-1.65-1.24-1.73-.52-5.21-.66-6.63.75-1.62-.86-1.81-2.56-2.16-4.2-.83.18-.82,1.37-1.64,1.95-2.06,1.46-1.61-.65-2.49-.95-1.02-.34-2.06.46-2.77.33-.24-.04-4.04-2.29-4.18-2.49-.53-.7-.22-1.91-.71-2.26-1.38-.97-5.58-.49-6.92-1.14-.7-.33-1.09-1.81-1.92-2.4-1.33-.95-4.59-1.99-6.4-3.2s-4.12-3.93-6.13-4.91c-3.74-1.84-2.32-.27-5.67-3.45-1.78-1.68-4.34-3.01-6.31-4.75-1.25-1.1-3.82-5.53-4.29-5.81-1.08-.64-3.57,2.02-2.88-3.57-2.76,1.11-3.24-2.31-4.81-4.07-2.07-2.32-5.68-5.29-8.52-6.84-2.04-1.11-4.9-1.78-6.66-3.41l-11.84,5.29c-1.76,2.78-4.12,4.67-7.43,5.3-.77.71.13,2.21-.16,2.69-.44.72-5.29,2.95-6.28,3.49-.36.2-.42.7-.76.87-.69.36-1.96.29-2.52.75-.96.8-.1,2.59-.7,3.62-.41.7-2.1.92-2.77,1.43-3.13,2.37-3.44,7.49-8.01,3.38-.16.82-3.67,3.28-4.37,3.57-2.28.92-4.75-.43-7.64,1.48-.77.51-1.55,1.88-2.28,2.07-1.32.34-2.14-1.22-3.28-1.4-.89-.14-.59.91-1.01.99-1.1.22-2.2-.56-3.19-.41-1.05.16-4.64,2.97-5.35,3.08-3.19.48-6.73-2.23-10.04-2.03-1.11.07-2.27.79-3.45.81-3.08.07-4.4.08-7.54,1.05-.85.26-1.45,1.3-2.51,1.3-.81,0-4.5-1.92-5.87-2.26-1.19-.29-2.44.06-3.63-.21-1.37-.31-2.52-2.02-4.63-1.39l-.03-1.38-3.48.4c-1.21-.32-1.48-2.08-2.16-2.32-.9-.32-4.94-1.2-6.14-1.43-.88-.17-3.23.19-3.53-.07-.24-.21-.19-2.92-1.48-3.56-1.66-.82-3.61.14-5.29.25l-.06-1.86c-2.23-.02-1.69-1.73-1.89-1.93-.31-.3-2.19.16-3.03-.13-.67-.23-.62-1.3-1.1-1.41-.89-.19-2.82.92-3.47.48l-.53-4.28c-.89.08-1.54.62-2.51.4-.23-.05-3.89-2.3-4.06-2.47-.64-.62-.94-3.12-1.56-3.97-.3-.25-3.23,1.12-4.39-.39-.74-.9-.14-2.26-.67-3.17-.67-1.16-3.23-1.27-2.18-4.78-4.26.59-3.67-4.85-4.93-7.56-.44-.95-3.01-3.17-3.65-3.8-1.57-1.55-3.5-2.94-3.78-5.32-.09-.8.34-1.5.18-2.53-.44-2.87-3.87-5.7-3.07-8.29.32-1.02,2.08-1.62,1.51-3.09-.31-.79-1.37-.92-1.87-1.53-1.53-1.87-2.96-3.62-3.14-6.04-.06-.87.46-2.1.26-2.66-.58-1.58-3.92-2-2.2-5.66l-2.31-1.83c1.7-2.5,2.95-5.24,2.14-8.35-.29-1.11-1.66-2.47-1.7-3.63-.04-1.08.88-1.57.96-2.37.12-1.12-.77-2.55-.45-4.27.15-.84.96-1.37.98-2.42.04-1.59-1.43-2.32-1.52-3.85-.09-1.41.76-2.95.96-4.37.1-.67-.45-1.46-.35-2.25.17-1.33,2.41-3.43,2.34-4.4l-1.75-1.74c1.24-2.57,2.63-5.1,3.84-7.68.34-.74.2-1.64.54-2.34.48-.99,2.13-1.39,2.18-1.76.22-1.42-1.82-2.44-.14-5.8.46-.92,1.31-1.33,1.75-2.09,1.31-2.26,2.26-4.13,3.71-6.37.68-1.06,3.03-2.79,3.21-3.53.25-1.09-1.11-3.54-.19-4.98,3.53-.83,5.54-2.51,7.39-5.57.8-1.32,2.04-5.1,2.92-6.2.37-.47,4.34-2.48,4.74-3.18.27-.48.12-2.57.41-3.68.87-3.34,1.88-5.75,2.62-9.38.25-1.26,1.49-1.67.45-3.31-.3-.47-1.03-.46-1.5-1.49-.72-1.55-.59-4.56-1.16-5.57-.26-.46-2.64-1.88-3.52-3.2-1.16-1.74-1.89-3.15-3.17-4.99-.56-.8-.98-2.4-1.47-2.86-.62-.58-1.59-.41-1.68-.48s.54-1.32.54-2.15c0-.89-.39-4.54-.61-5.22-.2-.6-1.09-.65-1.51-1.4-.96-1.7-4.82-11.23-4.64-12.55.4-2.94,1.46-5.14.98-8.71-.22-1.64-2.01-3.25-1.93-5.79.04-1.18,1.46-.97,1.46-1.41,0-.64-.78-1.29-.86-1.95-.21-1.94,1.26-3.86,1.35-5.22.21-3.3-1.26-5.79.79-9.74.44-.84,1.47-.99,1.57-1.41.98-4.38.81-6.66,3.08-10.74,1.11-2,.37-3.32.73-4.93.14-.61,1.72-.52,2.21-1.29.41-.64-.36-2.45.68-4.09.14-.22,2.74-3.19,2.91-3.32.76-.59,1.84-.55,2.37-.99,1.74-1.45,3.36-5.92,6.01-7.43,1.64-.93,5.77-1.75,6.47-2.15s.85-1.37,1.51-1.87c2.07-1.6,4.88-.89,5.73-1.47.36-.24.61-1.54,1.16-2.2,1.27-1.54,2.9-2.1,4.34-3.33,2.16,3.29,1.78.88,2.59-.17.21-.27,6.19-1.75,6.55-1.73,1.03.05,1.67,1.42,1.9,1.41s.85-1.2,1.49-1.32c.68-.13,1.97.57,3.27.36,1.09-.18,1.87-1.21,3.38-1.34,3.9-.32,10.03,2.27,14.01,2.67,1.19.12,3.51-1.46,5.38-.29l.62,2.74c3.18-.16,4.95,2.62,7.64,4.12s6.05,2.99,8.62,5.3c.7.63,1.3,2.15,1.9,2.45.56.27,1.46-.29,2.4-.07,1.85.43,5.22,3.12,6.45,4.63.57.7,2.56,4.5,2.78,4.66.49.35,2.95.55,3.6,1.22.22.23.07.9.27,1.11.42.46,1.26.54,1.55,1.12.39.76.08,2.19.26,2.38.14.14,1.06-.04,1.49.16,1.08.5,4.42,2.06,5.07,2.25,1.24.36,4.56.18,5.61.92.44.31.28,2.93,2.07,3.37,1.18.29,2.18-2.01,4.46-.18,1.22.98.79,2.37,1.41,2.89.12.1,1.02-.17,1.72.17,1.76.84,2.64,3.59,5.25,3.41l7.46,9.86,2.87-.25c-.15,3.64,3.58,1.18,4.98,1.41.45.08.4,1.17,1.09,1.41,1.39.49,5.97.17,8.38.76,2.16.53,5.75,1.34,7.65,1.91,1.11.33,2.64,1.93,3.99,2.11.54-.07,2.99-2.39,3.53-2.94,2.49-2.55,7.25-7.13,10.46-8.97,1.19-.68,3.83-1.08,4.75-1.88.48-.42.1-1.19.62-1.48,1.15-.65,2.79-.37,3.99,0,.55-3.44,1.79-1.89,3.56-2.07,3.94-.41,3.65-1.38,8.73-.83,4.04.43,4.09-1.78,5.84-2.29.28-.08,5.35-.59,5.64-.56.81.09,1.51,1.23,2.39.95.54-.17.59-1.2.84-1.35,1.16-.72,4.33,1.14,5.46,1.33,4.33.71,8.29.7,12.82,2.06,2.05.62,6.31,3.41,8.05,4.43.81.48,1.75.05,2.91.93,1.23.93,1.05,2.77,1.36,2.93.96.49,4.18.97,5.19,1.8.55.45.73,2.33,1.2,2.65s1.73.09,2.5.62c1.2.82.52,3.17,3.63,2.37l.24,3.84c.57,1.26,1.56.37,2.03.58.12.06.65,1.37,1.92,1.69,3.89.98,2.58-.7,3.62-1.66,1.45-1.34,3.13-.56,4.3-.73,4.36-.65,8.79-1.24,13.12-1.76,6.46-.78,12.84,2.46,18.9,4.07,3.29.87,3.62.51,7.11,2.02,2.59,1.12,2.69-.15,4.48-1.07.46-.24,1.11.12,1.41-.06.67-.4,1-2.17,2.25-2.51.74-.2,1.56.05,2.21-.11.4-.1.32-.91.65-.97,1.2-.22,2.64,1.08,4.17.06.74-.49.56-2.09,1.5-2.94,1.56-1.42,10.84-7.14,12.78-7.86,3.74-1.4,7.31.54,9.87-3.12l2.09.92c.03-3.02,1.35-2.01,2.55-2.87.59-.42.7-1.02,1.82-1.64,1.31-.73,1.67.25,2.65-2.15l3.76-.02.52-1.51c1.36-.16,3.5.38,4.7-.04.75-.26.81-1.32,1.27-1.61,1.28-.81,3.17.68,3.6-1.21h.71s.73,1.44.73,1.44c2.8-3.43,5.91-2.56,9.6-2.34.97.06,2.27-.53,2.83-.42.64.13.95,1.25,1.94,1.3,2.61.14,5-.45,7.37-1.28,2.94-1.03,7.16-3.06,10.05-3.88.49-.14,1.21.35,1.6.14.84-.45,2.54-4.7,3.34-5.75,1.16-1.52,4.5-4.03,5.51-5.53.49-.73.61-2.04.84-2.28.38-.38,1.76-.12,2.51-1.09,1.3-1.68-.55-2.93,3.07-1.96.41-1.64,1.83-2.07,2.95-3.06.47-.42.68-1.37,1.16-1.72.95-.68,2.53-.21,3.21-1.11.51-.67.25-1.75.53-2.11.14-.18,1.33-.34,1.89-.74,2.69-1.92,4.53-3.05,6.87-5.14,3.87-3.47,3.69-1.99,7.81-3.23,2.6-.79,4.1-3.64,4.78-3.88,1.39-.48,2.92.61,3.7.37.61-.18.59-1.29,1.1-1.42,1.04-.26,2.58.15,4.02-.19,1.36-.32,1.82-1.27,2.72-1.6,2.86-1.03,8.32.03,11.83-1.15.7-.23.64-1.33,1.08-1.41,1.21-.21,4.09,2.16,5.73,2.41,1.37.21,2.89-.17,4.25.07,1.74.3,4.05,1.45,5.82,1.42,2.89-.05,1.04-1.38,5.11.15.64.24,2.03.19,2.25.42ZM720.84,437.88c-1.11-1.09-1.86-1.86-2.98-3.03-16.26-17.01-48.08-2.57-57.46,15.54-7.42,14.33-.14,42.81,1.95,58.7,2.7,20.55,7.33,57.61,2.7,76.99-3.02,12.61-9.22,21.01-15.69,31.83-6.48,10.83-11.49,15.12-5.27,28.49,6.45,13.88,23.82,21.77,36.33,10.25,20.55-18.92,13.47-57.54,11.7-82.29-1-9.52-4.21-21.32-4.29-30.79-.03-2.96,1.7-8.72,5.56-6.48,4.34,2.52,6.67,15.68,7.75,20.56,3.4,15.36,4.36,38.44,23.08,43.16,23.42,5.9,37.03-21.9,34.67-41.39-.51-4.24-4.31-9.19-8.62-10.09-11.21-2.34-11.15,17.75-20.91,10.83-6.16-4.37-7.68-25.78-10.87-33.29-1.41-3.32-4.63-8.61-7.38-10.86-1.1-.89-4.2-2.23-4.48-3.23-.66-2.31,6.11-9.09,7.72-11.31,10.74-14.76,18.76-39.95,10.55-57.32-.32-.68-3.79-6-4.06-6.26ZM279.54,444.78c-3.15-2.63-8.59-8.27-12.63-9.21-21.26-4.97-26.06,34.86-12.26,46.82,5.39,4.67,13.78,5.14,20.27,8.04.79.35,1.62.26,2.52.86,2.96,1.98,6.97,12.23,8.17,15.82,7.05,21.13,10.39,45.23,11.94,67.22.75,10.56,2.68,32.06-6.72,39.32-11.43,8.83-22.33-4.36-21.02-15.75.95-8.26,8.44-11.09,10.73-18.07,6.35-19.31-16.7-33.63-31.91-21.35-16.14,13.03-19.38,45.99-14.36,64.77,10.92,40.87,69.63,54.87,89.81,15.48,14.6-28.49,2.79-70.81-4.45-100.37-2.16-8.82-6.8-20.35-6.22-29.33.05-.78.72-4.76,1.04-4.96l10.61-1.15c12.86-2.07,10.47-21.07,5.08-29.31-4.82-7.36-14.57-7.9-22.46-10.66-12.76-4.47-18.06-9.76-28.16-18.17ZM601.33,468.62c-3.27.39-9.15,3.01-10.86,5.93-2.93,4.99-3.92,10.5-3.92,16.28,0,10.69,3.95,20.53,6.13,30.81,1.8,8.5,2.97,17.29,4.36,25.88,2.84,17.51,3.42,57.02,26.77,59.63,19.95,2.23,29.2-14.03,31.33-31.45,1.92-15.72-.71-32.42-1.83-47.97-.87-12.03-1.25-44.82-7.31-53.65-2.05-2.99-4.42-4.83-8.21-4.05-2.45.51-10.07,8.07-11.05,10.54-2.41,6.07-2.36,18-1.77,24.62,1.45,16.18,10.27,32.76,8.09,49.39-.51,3.89-3.1,8.92-7.76,7.88-1.19-.27-3.62-2.26-4.43-3.25-10.08-12.27-3.81-57.92-5.01-75.15-.62-8.95-4.16-16.67-14.53-15.44ZM449.6,480.16c-11.12-11.14-26.27-5.67-34.61,5.63-16.61,22.52-14.74,78.62-1.31,102.53,11.54,20.55,34.32,20.62,43.42-1.86,4.41-10.9,7.49-38.89,2.67-49.51-3.9-8.59-15.75-8.58-23.58-6.45-6.81,1.85-8.43,16.9-2.45,20.48,2.78,1.66,6.69.19,9.04,3.92,1.44,2.28.05,7.53-.94,10.05-1.62,4.13-3.86,5.99-8.24,3.93-14.54-6.85-14.29-50.54-6.32-62.17,1.14-1.67,4.23-4.72,6.2-3,1.78,1.55,3.36,9.65,5.03,11.77.19.25,5.04,3.22,5.35,3.29,7.41,1.69,14.56-2.63,15.45-10.27,1.15-9.94-2.66-21.28-9.71-28.35ZM575.86,488.78c-.17-.18-3.8-2.84-4.04-2.92-1.76-.56-5.08-.36-6.88.12-3.71.97-13.19,8-16.74,10.62-5.66,4.18-9.99,6.68-12,13.92-2.82,10.1-1.4,22.84-.52,33.09,1.57,18.37,3.88,42.55,8.4,60.24,1.62,6.31,6.63,13.79,13.29,15.51,11.29,2.93,37.69-3.63,39.28-17.67.73-6.41-1.87-23.52-10.37-23.72-5.55-.13-16.04,14.49-22.68,7.33-3.38-3.64-4.19-14.99-.55-18.65s15.47-1.59,16.76-10.6c.89-6.2-.63-12.52-5.22-16.78-6.71-6.22-10.34,2.71-15.04,1.62-.91-.21-2.24-2.22-2.68-3.1-2.08-4.18-2.33-10.01,1.62-13.14s11.4-2.45,14.63-5.53c2.58-2.46,6.09-8.31,6.6-11.64.64-4.2-.98-15.51-3.86-18.69ZM382.78,620.85c18.04-16.89,15.77-61.26,12.12-83.83-2.3-14.24-9.17-46.13-26.98-47.9-11.3-1.12-20,3.12-25.14,13.25-14.18,28.01-8.53,84.29,7.54,110.9,7.22,11.96,20.97,18.32,32.46,7.57ZM506.76,568.44c2.22,2.38,1.06,9.29-1.92,10.56-3.41,1.46-9.37-.71-11.28-3.84-6.1-10-6.38-44.16,3.48-51.96.8-.63,2.44-1.23,3.36-1.95,2.24,1.73,3.2,5.61,5.04,7.95,2.93,3.73,9.88,4.36,13.41,1.41,12.78-10.63.13-38.6-16.95-37.11-5.46.48-15.47,6.56-19.01,10.75-8.66,10.26-13.35,34.25-13.95,47.49-.81,17.82.73,54.26,21.89,60.23,6.9,1.95,11.39.35,17.49-2.85,1.86,25.53-29.99,39.95-48.73,22.09-10.21-9.72-14.82-22.65-32.77-17.44-13.89,4.03-19.44,16.83-13.96,30.08,19.29,46.59,91.21,45.43,113.31,2.07,11.13-21.83,7.3-54.61,3.7-78.27-.71-4.7-2.67-16.11-5.22-19.74-1.21-1.71-6.19-3.74-8.25-4.23-6.43-1.51-17.77,1.02-19.07,8.59-.89,5.19-.46,11.1,4.5,14.14,1.13.69,4.12,1.15,4.93,2.02Z"/>
  <path d="M478.08,945.12c.13,1.47-1.21,1.56-2.4,1.43v-1.44s2.4,0,2.4,0Z"/>
  <path d="M168.48,934.08c0,1.89-1.9,1.91-1.92,0h1.92Z"/>
  <path d="M628.32,923.52c-.32-.35.14-1.91.95-1.92l.48,1.2c-.24.45-1.16,1.01-1.43.72Z"/>
  <path d="M690.11,458.51c3.34-.57,5.89-.41,8.28,2.05,5.58,5.74.42,19.04-3.44,24.87-1.33,2.01-7.48,10.66-9.95,7.24-.46-.64-1.62-4.37-1.84-5.36-1.43-6.36-.8-13.13-2.06-19.53.1-4.78,4.56-8.51,9.01-9.27Z"/>
  <path d="M360.62,526.69c1.49-1.83,5.35-2.23,7.07-.38.29.31,2.91,4.57,3.11,5.05.7,1.67,1.36,6.84,1.62,8.94.94,7.47,2.21,26.52-.98,32.98-3.83,7.75-9.77-.44-11.13-5.51-2.24-8.4-3-25.56-1.63-34.13.18-1.13,1.44-6.34,1.94-6.95Z"/>
</svg>