<?xml version="1.0" encoding="UTF-8"?>
<svg id="Calque_1" data-name="Calque 1" xmlns="http://www.w3.org/2000/svg" viewBox="0 0 491.52 491.52">
  <path d="M174.85,158.99c1.91,1.07,2.36,1.69,3.7,3.14.61.66,2.01,1.1,2.48,1.54.25.23.15.63.4.85,1.79,1.56,6.82,2.44,9.19,3.02.19.05.15.42.33.47.26.06,4.7-.63,5.18-.77.7-.21,1.67-1.11,2.48-1.37.87-.28,1.93,0,2.84-.46.78.18-.17,2.82-.11,3.69s.65,1.74.54,2.72c1.98,1.91,4.7,3.93,7.63,3.29,4.6-.99,5.16-3.84,5.28-8.04,1,.06,2.28-.2,3.19.29.38.2,1.49,1.43,1.49,1.84,0,.96-.99,1.4-1.37,2.01-.79,1.28-1.78,4.78-1.88,6.28-.06.98.34,2.49.12,3.25-.42,1.51-1.85,2.83-2.53,4.2-.43.88-.72,2.56-1.07,3.49-.22.59-.68,1.83-1.38,1.65-2.72-1.48-5.4-1.94-8.45-2.14-2.83-.18-4.75.46-7.49-.91s-3.07-4.29-5.86-5.18-5.74.86-7.42,3.1c-.58.77-.91,1.87-1.44,2.64-1.96,2.84-6.03,5.13-6.45,8.91-.23,2.01.46,5.17,2.53,6.06.53.23,2.01.57,2.53.47.27-.05,3.31-1.42,3.61-1.62,2.3-1.53,2.75-2.13,5.89-2.82,3.45-.76,3.6.22,6.47,1.31.78.3,1.65.43,2.39.73,4.93,2,13.29,7.22,18.41,6.51,3.37-.47,4.02-1.88,6.16-3.93,1.03-.99,2.35-2,3.36-3.12,1.24-1.37,3.44-4.88,4.56-5.76.3-.23,1.51-.58,1.81-.54.12.02,1.37,1.29,1.89,1.62,2.51,1.53,6.08,2.45,8.19,4.17.95.77,1.73,2.88,2,4.12s.39,2.21-.45,3.11c-2.41,2.58-9.89,1.47-13.14,1.61-.89.04-1.92.44-3.31.42-1.57-.02-.64.05-1.26.22-1.33.39-2.75.06-4.01.27-7.62,1.26-15.37,1.19-22.8,1.66-2.69.17-5.85.64-8.42.74-.9.04-1.84-.51-2.87-.51-.88,0-1.53.39-2.22.43-2.44.15-4.93-.01-7.39.06-1.02.03-1.86.46-2.99,0v.72c-1-.38-1.83.14-2.76.19-.52.03-1.25-.45-1.75-.13-.08.05-.14,1.18-.67-.08-.4.03-.77.24-1.18.26-5.27.24-10.59.15-15.84.22-1.46.02-3.22.79-4.68.98,1.19,4.13,5.08,5.29,8.69,6.55,4.91,1.72,9.36,2.84,14.07,5.19.54.27.91.4,1.45.9,1.07.99,1.51,1.98,2.36,2.93.93,1.05,2.37,1.9,3.37,2.9,1.5-.03,3,0,4.49.02,2.35.03,3.54-.2,5.87.85,1.22.55,3.54,2.25,4.96,2.22.11,0,.11-.38.28-.43,1.15-.33,1.87-.36,2.98-1.01.8-.47.87-1.04.96-1.12.14-.14.6.04.86-.11.13-.07.37-.68.79-.77.32-.07.45.36.71.25.64-.26,1.79-1.88,2.5-2.43,7.4-5.8,16.71-7.94,25.18-2.75,3.33,2.04,5.84,5.46,8.56,8.3.98,1.02,2.18,1.81,3.11,2.89.24.05,1.8-.11,2.03-.18.32-.11.32-.53.57-.68,5.57-3.44,10.78-2.89,16.86-1.32,1.79.46,3.05,1.58,5.19,1.72.6.04,3.74-.49,4.49-.65.15-.03,2.37-1.13,2.78-1.35,1.05-.57,2.21-1.79,3.28-2.48,6.68-4.33,12.78-5.84,20.26-8.3,9.23-3.03,25.95-8.25,30.22-17.58.56-1.23.36-1.6.56-2.51.09-.43.61-.67.68-1.5.53-5.99-4.31-9.51-8.92-11.97-5.42-2.89-11.43-4.2-17.31-5.73-2.88-.75-5.96-1.26-8.51-2.77-.6-.36-1.82-2.15-1.76-2.8,1.85-3.1,5.84-2.78,8.95-3.31,11.3-1.93,23.41-3.51,34.86-3.8,6.01-.15,12.18.26,18.24-.46,2.75-.33,2.62-.45,5.56-.32.91.04,4.09-.58,4.59-.33,1.14.98,1.47,3.12,2.49,4.11.37.35.96.47,1.06.62.16.25.21,1.46.65,2.24.27.48,1.58,1.75,1.73,2.09.31.7.25,3.9.39,4.05.04.05.79.15,1.16.39,1.41.93.94,1.62,1.26,2.82.4,1.48.5.59.33,2.32-.06.62-.01,3.21.09,3.7.04.17.44.14.48.33.2.81-.13,2.13.02,3.06.16,1,1.39,2.3,1.41,2.44.06.35-.29,1.44-.18,1.84.17.59.98,1.48,1.23,1.91.39.7.28,1.84.67,2.43.25.38,1.63,1.78,1.78,2.07s.04.76.17.91.73,0,.89.44c.21.58-.38,1.47-.23,2.08.02.1,1.26,1.24,1.38,1.44.47.81,1.74,2.99,2.09,3.79.72,1.62.2,2.55.4,3.18.04.11,1.14,1.13,1.32,1.83.17.65-.57.8.52,1.31.05,1.39-.73,3.58-.65,4.81.04.62.68,1.14.73,1.94.03.54-.23,1.02-.21,1.44.06,1.77.08,3.59.03,5.07-.03.82.66,1.52-.8,1.53.21.85.38,1.91.26,2.78-.06.46-.5.32-.51.48-.01.35.36.79.25,1.37-.03.15-.38.14-.52.5-.61,1.63-1.78,5.36-.67,6.51-.58.98-.7,2.51-.2,3.55.14.29.44.31.59.5.46.6.38.4.76.78,1.23,1.23.54.71.8,1.82.08.35.58,2.17.67,2.24.89-.23,3.57.26,4.33.7.11.07.89,1.66,1.43,2.17,1.27,1.19,3.79,3.15,4.57,4.62.3.57.67,1.99.96,2.54.13.25.53.11.64.23,1.15,1.24,1.07,2.63,1.53,4.25l.73-.14c.86.96.19,2.04.23,2.9.08,1.79.55,3.61.74,5.26s-.45,3.15-.38,4.58c.01.21.37.5.38.95.02,1.14-.95,1.28-.99,1.5-.17.87.58,2.75.21,3.98-.13.44-.84.76-1.05,1.37-.41,1.17-.61,3.23-1.19,4.55-.27.63-1.06.58-1.33.89-.53.61-.4,1.66-.61,2.21-.5,1.3-2.38,4.52-3.2,5.63-.18.25-.72.16-1.1.64-.76.94-.37,2.73-1.64,3.51-.27.17-.71.12-1.02.31-.36.22-.56.6-.78.71-1.87.98-1.72.27-3.2,2.04-1.23,1.47-1.46,1.04-2.49,1.81-.33.25-1.71,1.31-1.95,1.53-.3.28-.41.95-.73,1.14-.54.32-1.36.12-1.94.4-.83.39-1.03,1.57-2.62,1.96l-.45-.47c-1.2-.14-1.34,1.19-1.86,1.62-.25.21-.83.25-1.21.59-.98.87-1.61,2.27-3.03,2.37l.24,1.19c-1.53,0-.95.48-1.21,1.02-.2.41-.88-.06,0,1.26-.08.32-1.73,1.21-1.94,1.43-.29.31-.78,2.25-1.16,2.86-.31.5-1.3.03-.99,1.35l-1.79.49c-.12.74-.85,2.46-1.3,3.01s-1.1.42-1.39.65c-.35.28-.68,1.89-.85,2.05-.11.1-.45,0-.59.12-.19.17-1.05,1.89-1.43,2.11-.49.28-1.17.1-1.65.45-.51.36-.43,1.15-.64,1.4-.14.16-.52.15-.73.3-.16.11-.15.44-.34.48-.5.11-1.33-.16-1.71.06-.11.06-.7,1.19-1.03,1.49-1.47,1.34-2.66,1.28-4.37,1.63-1.21.25-1.59,1.15-2.81-.06l.22,1.28c-.32,1.02-3.13.21-4.11.66-1.52.69-1.64.17-2.9.47-.19.05-.07.45-.51.5-.56.06-2.44-.22-3.02-.37-1.02-.27-2.69-1.46-3.73-1.57-.92-.1-1.74.61-2.15.62-.16,0-2.69-.59-3.04-.7-.25-.07-1.79-.6-1.85-.68-.15-.19.1-1.24-1.16-1.6-.76-.22-1.29.17-1.84.12-.43-.04-1.13-.61-1.8-.44l-.03-1.65-2.42-.11-.22-1.82c-.69-.04-1.46.18-2.07-.23-.34-.23-.15-.73-.32-1.03-.2-.33-.52-.46-.81-1.17-.2-.48-.17-1.13-.38-1.53-.04-.07-1-.16-1.38-.68-.28-.38-.88-2.33-1.09-2.51-.23-.19-.88-.1-1.09-.35-.19-.22-.1-.87-.35-1.09-.21-.18-.88-.12-1.28-.52-.98-.96-.67-.78-1.91-1.69-.65-.48-.6-1.46-1.78-1.22.18-1.67-.05-1.09-.7-1.58s-1.13-.56-1.19-.61c-.14-.11.04-.71-.44-.9-.32-.13-1.36.31-1.87.22-.64-.11-1.39-1.02-2.67-.98-.08,0-1.49.35-1.55.39-.16.11-.15.52-.4.58-.55.14-1.69-.04-2.3.23-.29.13-.09.63-.56.93-.57.36-1.6.13-1.96.33-.09.05-.28.58-.51.8-.6.57-1.5,1.51-1.91,2.17-.84,1.38-.14,2.11-2.67,1.78l-.11,1.46-.86.09c-.15,1.39-.64.91-.88,1.14-.18.16-.09.63-.23.85-.71,1.12-1.5.63-1.73.81-.1.08-.05.86-.31,1.13-.21.21-.8.19-1.13.43-.37.27-1.03,1.51-1.6,2.01-.28.25-.71.23-.77.29-.18.2.06,1.1-.04,1.17s-.62-.11-.9.05-.76,1.45-1.01,1.75c-1.28,1.55-3.21,2.24-4.7,3.22-.29.19-1.02,1.4-1.24,1.44-.57.11-1.15-.13-1.75.13-.45.2-.71.98-1.08,1.32-.77.69-1.75.11-2.41-.45-.17.3-1.07,1.28-1.15,1.46-.14.33-.13,1.1-.17,1.14-.08.08-.89-.05-1.26.06-.6.18-1.18.84-2.31,1.01-.78.11-2.77-.26-3.33-.02-.13.05-1,1.32-1.23,1.51-.77.62-5.81,1.72-6.87,1.66s-2.23-.92-3.35.1c-.65-1.44-3.49-1.52-3,.5-.74-.46-1.65-.15-2.22-.28-.49-.11-.8-.63-1.27-.68-.62-.06-2.07.59-2.7.17-.12-.08.05-.66-.53-.41-.04.99-1.28.77-2.05.73-2.16-.12-5.29-1.37-7.02-1.4-.57-.01-.7.39-1.3.39-1.15,0-1.08-.94-1.15-1.88-.75-.2-.49.78-.95,1.09-.73.5-.69-.38-1.33-.62-.58-.22-1.21.02-1.8,0l.24-.72c-2.47.57-1.96-1.48-2.16-1.68-.06-.06-.98.07-1.31,0-.81-.18-1.13-.72-2.3-.33l-.5-1.31c-1.53.32-1.6-.54-2.27-.96-1.55-.97-2.19-1.55-3.54-2.59-.65-.5-2.6-.73-2.75-.86s-.9-1.51-1.36-1.87c-.37-.29-.88-.27-1.16-.47-1.05-.77-2.04-1.69-2.82-2.56s-.78-2.4-2.39-1.76v-1.68c-1.11.25-.87-.33-1.3-.73-.88-.82-.87-1.34-1.15-1.62-.25-.25-.88-.15-1.09-.35-.55-.54-1.5-2.14-2.47-2.69-1.36-.34-2.75-1.07-4-1.77-1.25.68-2.58,1.18-3.86,1.82-.26.13-.28.43-.37.48-.43.22-1.47.16-2.01.63-.34.29-.49,1.04-.91,1.37-.62.49-1.72.43-2.39,1.21-.41.48-.53,1.46-.67,1.61-.19.19-.77.11-1.01.27-.31.21.24.97-1.36.85l-.24.85-1.65.02c-.04.56.09,1.29-.27,1.77-.26.36-1.8,1.13-2.13,1.47-.41.42-.81,1.47-1.22,1.68-.75.4-1.19-.56-1.7-.51-.37.04-.42.55-.8.66-.36.11-.95-.07-1.05,0-.2.14-.31.93-.94,1.11-.92.26-3.22.08-4.09.83-.27.23-.15.87-.45.92-.66.12-1.43-.7-1.91-.75-.52-.04-.72.4-.99.44s-.65-.56-1.56-.18c-.23.1-1.46,1.39-1.56,1.41-.31.08-1.59.15-1.94.08-.58-.1-1.74-.96-1.85-.96-.16,0-.35.33-.52.36-.3.05-.49-.35-.86-.37-.64-.04-1.82.46-2.44.41-.46-.03-.86-.49-1.2-.49-.16,0-.17.5-.53.69-.51.26-1.33.14-1.82.31-.23.08-.22.43-.48.54-1.03.45-1.94-.48-2.81-.7s-2.07-.19-2.92-.45c-.5-.15-.47-.68-.9-.73-.35-.04-.76.2-1.09.1s-.31-.65-.56-.71c-.49-.12-1.1.23-1.6.27-.6-1.78-1.74-1.08-2.99-1.62-.31-.13-.27-.56-.43-.56-.43,0-1.17.49-1.75.21-.12-1.27-1.36-.64-1.24-2.12-.27-.24-2.04.76-2.88-.18-.79-.88.07-1.62-2.15-1.26v-.96c-.12-.13-1.54,1.18-2.65-.13-.32-.38.15-1.06,0-1.55l-2.13-.03c-.08-1.51-1.79-1.55-1.71-3.09-.14-.13-1.29.46-1.58.42-.06,0-.89-.85-.92-.91-.26-.47-.18-1.07-.43-1.5-.23-.4-.8-.48-.9-.8-.11-.36.24-.88.12-1.05-.26-.37-1.39-.34-1.54-.51-.08-.09-.24-1.44-.41-1.87-.26-.65-.96-2.43-1.19-2.88-.2-.37-1.42-.77-1.87-1.19-.24-.23-.16-.62-.43-.84-.16-.13-.55-.07-.65-.18-.42-.45-.07-1.99-.15-2.59-.19-1.34-1.98-2.93-1.55-4.15.18-.5,1.23-.45.89-1.45-.16-.49-.86-.44-1.11-.7-.19-.19-.21-.65-.42-.9-.26-.31-.68-.39-.84-.67-.46-.82.44-2.09-.48-3.3-.19-.26-.66-.27-.81-.65-.22-.55.1-.98-.01-1.39-.15-.56-.88-.77-.89-1.55,0-.5.5-.36.65-.7.46-1.03.31-2.49.36-3.61l-.7-.15c.08-.54-.33-1.34-.29-1.75.02-.17.48-.05.52-.5.12-1.27-1.08-1.85.46-3.36,0-.66-.96-1.17-.97-1.25-.01-.1.04-1.83.06-2.06.03-.3.4-.63.44-1.03.06-.59-.44-1.82.3-2.45.23-.2.92.22.66-.65-.06-.21-.85-.04-.72-1.18.09-.81.78-1.08,1.02-1.64.41-.95.45-1.01.9-1.81.31-.56-.04-1.34.03-1.45.05-.08,1.23-.64,1.41-1.12l-.7-.5c.18-.54.11-1.4.27-1.86.12-.35.56-.35.68-.57.28-.49.3-1.37.59-1.76.16-.22.56,0,.72-.21.11-.14-.09-.64.23-.99.29-.32,1.11.32.61-1.19.44.27,1.43-.91,1.57-1.21.23-.5-.41-2.06.13-2.85,1.55.22,1.15-.21,1.76-.75,1.59-1.42,2.19-2.04,2.92-4.07.1-.27-.14-.67-.12-.7.04-.06.57-.12.79-.29.7-.53.98-.97,1.97-1.16.28-.4.22-2.37.35-2.97.08-.35.95-2.69,1.21-3.58.06-.19.45-.19.47-.34.01-.09-.22-1.68-.26-1.83-.03-.11-.64-.51-.84-1.36-.12-.51-.02-1.42-.22-1.71-.17-.24-.71-.12-.88-.37s-.08-.79-.28-.99c-.12-.12-.53-.08-.87-.44-.74-.79-1.66-3.58-2.85-4.24,0-1.49.32-2.79-.53-4.08-1.02-1.56-2.55-4.71-2.82-6.59-.07-.47.55-.86.65-1.4.45-2.42-.43-2.86-.64-4.35-.05-.36.25-.78.19-1.12-.04-.25-.72-.31-.73-.52,0-.05.38-.47.43-.77.12-.81.49-2.71.51-3.33.05-1.01-.45-2.36-.22-3.58.02-.12,1.16-1.93,1.26-2,.19-.13.6,0,.65-.05.06-.05-.27-1.05-.23-1.53s.72-3.3.87-3.7c.11-.28.51-.24.55-.44.06-.36-.27-1.14-.09-1.75.09-.29,1.44-2.61,1.67-2.89.33-.41,1.05-.66,1.2-.97s-.23-.72.08-1.09.95-.37,1.33-.62c1.66-1.04,2.03-2.03,3.35-3.25.57-.52,1.98-.98,2.04-1.08.14-.2-.02-1.88.4-2.6.05-.08,1.28-1.24,1.37-1.28.61-.3,1.1.12,1.14.07s-.07-.43.06-.65c.12-.19.65-.31.91-.67.82-1.13,1.97-2.41,2.61-3.41s.42-.53,1-1.2c.31-.35.6-1.71.95-2.3,1.73-2.91,3.92-5.33,6.98-6.99,2.64-1.43,3.97-.74,6.7-1.47,3.14-.84,5.42-3.14,8.22-5.16,3.96-2.86,6.85-6.16,10.51-9.46.29-.26.92-.34.95-.38.07-.1-.25-.54-.12-.93.33-1.01,6.19-6.14,7.39-6.78,3.61-1.93,5.88-2.07,9.43-.08ZM357.53,216.09c-3.75-3.58-12.17-2.63-16.54-.74-3.76,1.62-9.8,6.79-11.39,10.45-1.7,3.89-1.2,8.55-.8,12.65,1.51,15.41,4.61,30.45,4.31,46.31-.23,12.49-3.56,15.21-9.25,24.94-3.01,5.14-4.74,7.52-2.02,13.47,1.98,4.33,6.66,8.01,11.64,7.79,3.93-.17,6.64-2.18,8.84-5.34.96-1.38,2.05-3.37,2.33-4.98l.48.24c-.3-1.21.52-1.63.85-2.63,2.76-8.26.42-25.78-.61-34.69-.4-3.48-1.98-10.02-1.42-13.19.35-1.97,2.03-2.6,3.47-1.1,2.49,2.6,4.01,16.16,5.22,20.46,2.51,8.91,10.1,14.12,18.83,9.14.38-.22,2.36-1.96,2.69-2.35,3.58-4.31,7.16-14.1,4.13-19.24-1.52-2.59-4.26-3.63-6.93-1.92-1.49,2.77-4.7,8.28-7.84,3.74-3.78-5.47-1.85-14.72-7.43-20.53-.5-.52-2.94-1.95-3.01-2.16-.36-1.1,2.28-3.51,2.96-4.42,5.38-7.17,8.43-14.87,7.83-24.11-.29-4.51-2.45-8.05-5.54-10.98-.35-.33-.6-.63-.78-.81ZM134.84,218.21c-.25-.24-3.58-.74-4.1-.71-4.14.25-6.76,6.13-7.35,9.69-.62,3.76-.22,7.25,1.29,10.65s4.2,4.76,7.69,5.75c1.47.42,3.13.62,4.72,1.28,4.03,1.67,6.11,10.24,7.14,14.22,2.34,9.11,3.83,18.69,4.43,28.02.35,5.57,1.52,17.5-4.58,20.51-1.38.68-3.68.73-5.11.18-.31-.12-2.18-1.92-2.39-2.23-1.12-1.69-2.08-4.49-1.83-6.53.63-5.06,5.57-6.43,5.89-11.65.64-10.41-12.67-14.03-18.82-5.87-9.21,12.22-8.19,35.82,5.26,44.64,12.04,7.89,29.12,6.18,35.28-7.93,7.6-17.39-1.09-39.58-4.85-57.06-.43-1.99-1.54-6.42-.84-8.15.05-.14.87-1.25.95-1.27,1.4-.34,4.27.08,5.42-.23.23-.06.24-.49.42-.58.67-.33,1.12-.25,1.76-.89,3.27-3.25,1.85-10.68-.82-14.02-2.31-2.9-8.73-3.87-12.3-5.22-3.3-1.24-6.02-2.83-8.74-5.07-2.15-1.77-4.67-4.94-6.97-6.4-.37-.24-1.1-.25-1.36-.45-.23-.17-.07-.59-.18-.69ZM304.97,235.03c-2.17-1.54-7.58-.48-9.25,1.52-.45.54-2.31,4.14-2.42,4.78-1.27,7.1,2.71,17.72,4,25.01,1.16,6.55,1.61,13.32,2.73,19.83.46,2.71,1.47,5.32,1.66,8.07l.48-.24c0,.39.04.78.17,1.16.57,1.68,1.78,3.57,2.95,4.9,3.23,3.66,9.3,4.6,13.6,2.39,10.45-5.38,8.77-19.46,8.24-29.2-.49-9.13-.77-18.72-1.99-27.77-.38-2.79-1.38-8.79-3.95-10.21-1.6-.89-2.47-.33-3.9.56-.98.62-3.68,3.29-4.1,4.29-1.03,2.43-1.12,8.57-.94,11.29.51,7.64,6.34,20.88,3.6,27.61-.58,1.42-1.02,2.02-2.61,2.13-1.08.08-2.25-.75-2.99-1.54-1.08-1.16-2.25-5.9-2.54-7.6-.79-4.58-.37-9.46-.28-14.14.09-4.92,1.28-17.1-1.01-21.06-.07-.12-1.35-1.72-1.45-1.78ZM226.91,243.01c-5.73-9.27-15.67-7.01-20.64,1.54-6.82,11.76-6.29,36.97,0,48.97,4.49,8.57,14.49,11.79,20.49,2.71,3.61-5.46,5.56-21.17,3.08-27.24-.78-1.91-2.15-3.42-4.19-3.97-1.44-.39-6.59-.32-7.82.21-2.39,1.04-3.18,3.9-3.05,6.33.1,1.81.77,2.35,1.7,3.82.99.39,2.46.53,3.41.91,1.49.61,1.71,1.31,1.63,2.93-.27,5.67-4.28,7.79-7.64,2.61-3.75-5.77-4.47-23.67-.12-29.05.72-.89,2.4-1.85,3.19-.59.6.95,1.06,3.12,1.65,4.29.84,1.68,2.28,2.88,4.24,2.97,9.2.4,7.28-11.26,4.08-16.44ZM286.48,243.2c-.96-.49-2.81-.5-3.86-.3-1.85.35-8.47,5.07-10.28,6.47-3.47,2.68-4.47,4.18-4.98,8.75-1.01,9.03,1.19,17.82,1.43,26.62,0,.14.42.1.48.31.88,3.06.93,7.83,1.51,11.17,1.43,8.2,2.95,14.34,12.77,13.62,4.62-.34,13.76-3.08,14.5-8.54.39-2.87-.67-10.53-3.59-11.97-2.7-1.33-5.91,2.52-8.17,3.56-5.78,2.68-6.35-3.84-5.99-7.91.5-.42.56-1.18.86-1.54,1.5-1.81,7.85-1.25,8.5-5.18.27-1.62-.11-5.32-.85-6.8-.06-.12-1.27-1.8-1.35-1.88-.07-.07-1.51-.88-1.61-.91-2.78-.85-3.94,2.06-6.32,1.52-1.88-.42-2.11-4.5-1.8-6.01.74-3.56,5.74-2.77,8.09-4.15.88-.52.9-1.24,1.3-1.7.71-.82,1.22-.86,1.79-2.17,1.21-2.77.94-8.23-.44-10.92-.08-.15-1.85-1.96-1.98-2.03ZM189.28,247.25c-5.54-5.36-14.22-3.06-17.73,3.38-5.21,9.57-5.02,25.22-3.25,35.74,1.22,7.28,5.1,22.61,12.4,25.76,8.21,3.55,13.28-3.56,15.54-10.4,4.25-12.83,2.51-40.77-5.26-52.21-.36-.53-1.47-2.04-1.71-2.27ZM253.98,265.85c5.37,1.53,8.3-2.75,7.87-7.74-.62-7.02-6.76-13.73-14.17-10.55-9.56,4.1-12.3,16.18-13.2,25.68-.94,9.9-.18,34.1,14.51,32.99,1.64-.12,3.05-.73,4.45-1.56.7-.23.52,2.61.47,3.12-.8,8.21-10.9,13.38-18.48,11.29-8.12-2.24-10.26-13.67-19.77-12.81-8.11.73-12.61,8.03-9.45,15.63,7.68,18.45,32.18,22.11,47.63,11.28,13.74-9.63,13.48-25.36,11.93-40.49-.5-4.87-1.12-12.1-2.65-16.66-.78-2.32-1.27-3.07-3.65-3.79-2.87-.87-7.91-.86-9.89,1.73-1.72,2.24-1.95,6.66.43,8.51,1.9,1.48,3.97.96,3.66,4.23-.05.54-.5,1.26-.42,1.95-1.2,2.09-5.04.86-6.27-.57-.61-.71-1.29-2.56-1.54-3.5-1.46-5.31-1.55-16.71,1.55-21.38.45-.68,2.68-3.28,3.53-2.54.06.05.06.62.2.86.94,1.65,1.8,3.05,3.24,4.33Z"/>
  <path d="M338,146.08c3,2.74,5.04,6.28,7.82,9.34,1.76,1.94,4.29,4.16,6.38,5.86,1.86,1.51,4.02,2.53,5.4,4.5.38.54,1.23,2.11,1.06,2.73-.57,2.08-1.99,1.09-3.34,1.15-14.12.7-28.41.66-42.48,1.22-7.61.3-14.53,1.06-22.05,2.19-6.08.92-15.93,1.82-20.37,5.97-1.32,1.24-1.67,2.95-.77,4.55,1.29,2.27,7.96,4.55,10.47,5.37,3.19,1.03,7.15,1.68,10.25,2.95.42.17,3.67,2.18,3.84,2.4,1.45,1.88.17,4.5-1.68,5.47-4.78,2.52-11.32,3.22-16.68,3.96-4.38.6-8.03.95-12.45.99-1.25,0-3,1.11-3.97-.18-.53-.71-.53-1.76-.78-2.52-1.02-3.17-1.58-6.96-3.09-10.11-1.64-3.4-5.43-6.66-7.88-9.64-.31-.37-.4-.96-.73-1.37-.96-1.2-5.53-4.99-5.71-5.88-.23-1.12,2.35-7.83,3.21-8.69,1.68-1.68,2.64.68,3.79,1.59,2.56,2.01,4.92,1.79,7.59.19,1-.59,3.76-3.32,4.5-3.44.45-.07,1.69.57,2.55.59,1.39.03,2.68-.49,3.87-.64,1.78-.22,2.78.26,4.67-.61,5.27-2.44,13.88-11.46,19.57-10.64,2.13.31,3.76,1.93,5.52,2.88.67.36,3.41,1.73,3.96,1.8.63.09,2.65-.32,3.38-.49,5.02-1.12,8.56-5.03,12.53-8.12,4.32-3.35,5.4-4.24,10.85-5.94.62-.19,1.11-.76,1.75-.89,4.26-.88,6.22.89,9.03,3.46Z"/>
  <path d="M248.31,142.23c-1.7,1.55-3.47-.8-4.45.71-1.17,1.81.33,1.92,1.17,2.86,2.31,2.57,3.98,5.35,5.46,8.46.29.62,1.57,4.22,1.77,4.35,1.13.71,3.75-1.89,4.59-2.42,1.26-.81,2.77-1.31,3.9-2.34.14-.13,1.06-1.05,1.09-1.13.29-1.08-.48-2.67.47-3.73.11-.12,2.59-1.85,2.75-1.9,1.83-.58,1.76.58,2.42,1.24.71.7,1.34.31,1.54,2.07s-.34,2.44-1.54,3.46c-1.44,1.21-3.6,2.27-5.05,3.59-1.19,1.08-2.38,2.81-3.57,3.99-1.87,1.85-5.89,6.14-8.6,3.95-.76-.62-2.74-2.84-3.53-3.73-.89-1-1.35-2.42-2.65-3l-6.44,16.5c-.21.8.16,1.31.66,1.87,1.59,1.77,4.16,3.6,5.62,5.41.49.6,1.26,2.22,1.73,2.84,2.08,2.71,6.2,5.71,7.41,8.9,2.17,5.7,3.48,12.35,5.53,18.23.57,1.64,1.68,4.79,3.16,5.72,1.01.64,4.44,1.16,5.72,1.24,2.05.12,5.56-2.02,6.58.19.76,1.66-.17,2.47-1.31,3.4-1.72,1.43-5.28,2.94-7.38,3.9-1.93.87-3.85,1.92-6.03,1.61-3.37-.48-2.84-4.83-3.32-7.24-1.28-6.41-6.88-9.31-8.7-15.3-.84-2.75-.43-6.45-2.67-8.36-2.78-2.37-6.49-3.49-9.52-5.37-1-.62-3.57-2.91-4.43-3.03-.48-.07-.8.16-1.15.44-1.71,1.39-3.13,4.9-4.69,6.77-2.02,2.42-5.42,4.56-7.51,7.06-2.25,1.17-6.49-.4-8.72-1.31-5.89-2.41-11.38-5.93-17.75-7.41-1.25.11-2.45.75-3.63,1.07-.86.23-2.94.54-3.64.91-1.15.61-2.07,2.22-3.66,3.01-.18.09-.21.42-.37.45-1.47.31-2.71-1.38-2.47-2.71.03-.17.4-.17.47-.35,1.43-3.64,2.91-4.59,5.25-7.41.8-.96,1.43-2.31,2.45-3.33,1.12-1.12,2.48-2.1,4.07-.96.67.48,1.33,1.81,1.78,2.3,4.3,4.64,9.97,2.69,15.52,3.92,1.8.4,3.69,1.74,5.3,2.62.6.1,1.72-.26,2.1-.71.26-.32,1.42-3.01,1.54-3.5.26-1,.11-1.79.52-2.84.54-1.37,2.73-3.77,2.95-4.73.44-1.96-.09-4.59.52-6.92.92-3.5,3.95-5.53,4.98-8.7,1.72-5.29,1.44-11.04,2.23-16.48-.04-.26-4.62-.16-5.16-.14-.85.05-2.32.13-3.11.25-.38.06-.7.2-.98.46-.95,1.98-2.27,3.95-3.25,5.87-1.78,3.51-3.07,5.58-2.86,9.85.08,1.58.8,2.15,0,3.87-.89,1.94-3.81,1.69-5.43.84-.18-.1-1.33-1.38-1.38-1.51-.98-2.51,1.79-5.4,2.66-7.56.64-1.58,1.14-4.02,1.67-5.77.93-3.08,1.95-8.75,4.16-10.96,1.29-1.29,5.39-1.52,7.2-1.92,3.74-.83,7.35-2.01,11.19-2.2,1.92-.1,3.83.77,5.51-.9,1.79-1.78,0-4.98-.16-7.22-.34-4.79,2.25-7.42,7.06-7.06,5.79.44,6.75,4.59,6.39,9.69-.1,1.44-.97,5.34-2,6.28Z"/>
  <path d="M300.35,119.18c3.03,4.95,1.23,11.97-3.49,15.32-7.42,5.26-20.2-1.1-18.87-10.48,1.65-11.7,16.16-15.01,22.37-4.84Z"/>
  <path d="M304.72,134.96c.28.28,2.29,2.92,2.42,3.22.28.62.38,1.28.27,1.96-.66,1.12-4.81-2.7-5.2-3.51-.24-.5-.52-1.57-.14-2.01.86-.74,1.9-.4,2.64.34Z"/>
  <path d="M290.22,146.34c-.84-.87-1.35-8.26,1.75-6.18,1.13,1.44.18,8.18-1.75,6.18Z"/>
  <path d="M311.25,124.53c-.37.59-5.02.94-5.8.71-.83-.25-.74-1.51-.83-2.2.11-.37.69-.6,1.04-.62.87-.05,3.78.32,4.67.58.95.28,1.12.43.92,1.53Z"/>
  <path d="M279.51,110.25c.58.65,1.69,2.6.4,2.99-2.04.61-2.84-2.07-4.21-3.13-.24-.78-.59-1.54-.15-2.31.75-.48,3.42,1.84,3.96,2.45Z"/>
  <path d="M280.49,138.89c-1.56,1.03-2.95,2.83-4.97,2.71-.16-1.35.98-2.83,1.91-3.73.11-.11,1.82-1.38,1.94-1.42,1.7-.54,1.54,1.36,1.12,2.44Z"/>
  <path d="M289.75,109.61c-.61-.66-.21-6.02,1.21-5.9.32.03.98.51,1.08.85.17.58.34,3.34.23,3.98-.24,1.33-1.63,2.03-2.52,1.07Z"/>
  <path d="M273.84,121.92l-.12.48c1.02-.77,2.28-.16,1.67,1.19-.66,1.47-6.41,1.13-6.57-.64-.12-1.35,4.28-.8,5.02-1.04Z"/>
  <path d="M304.42,112.9c-1.05.96-2.71,2.86-3.91,1.18-.12-.35.07-1.4.28-1.69.39-.53,5.4-3.67,5.23-1.15-.04.33-1.26,1.35-1.6,1.66Z"/>
  <path d="M348.64,229.77c1.82,1.27,1.75,3.56,1.49,5.52-.42,3.27-2.31,7.14-4.54,9.62-.96,1.07-2.54,2.98-3.47.85-1.19-2.73-1.48-7.86-1.57-10.91-.05-1.77-.14-3.07,1.4-4.2,1.86-1.37,4.62-2.33,6.69-.88Z"/>
  <path d="M182.26,287.66c-.58-.39-1.58-1.9-1.87-2.57-1.62-3.75-2.13-16.59-.8-20.43.62-1.78,2.2-3.15,4-1.73.29.23,1.51,2.61,1.7,3.1,1.37,3.55,1.76,16.2.54,19.75-.58,1.71-1.85,3.03-3.57,1.87Z"/>
</svg>